<svg width="20" height="20" viewBox="0 0 20 20" xmlns="http://www.w3.org/2000/svg">
<path d="M8.42157 2.69009C9.29388 1.9895 10.7004 1.99195 11.5876 2.69791V2.69888L17.0456 7.06509C17.3455 7.31083 17.6096 7.69883 17.7809 8.14713C17.9519 8.59465 18.0143 9.05996 17.9567 9.44302L16.9069 15.7223C16.7063 16.8775 15.5787 17.8336 14.4167 17.8336H5.58368C4.47772 17.8336 3.44001 17.0151 3.14911 15.9489L3.10126 15.7321L2.05145 9.45084V9.44986L2.0329 9.30142C2.0025 8.94703 2.0659 8.54044 2.21552 8.1481C2.38641 7.69995 2.65373 7.31181 2.96161 7.06607L2.96259 7.06509L8.42059 2.69009H8.42157ZM9.99969 11.3747C9.38213 11.3748 8.87488 11.8821 8.87469 12.4997V14.9997C8.87469 15.6174 9.38202 16.1245 9.99969 16.1247C10.6175 16.1247 11.1247 15.6175 11.1247 14.9997V12.4997C11.1245 11.882 10.6174 11.3747 9.99969 11.3747Z" stroke="currentColor"/>
</svg>
